<svg xmlns="http://www.w3.org/2000/svg">
  <defs>
    <symbol id="Twitter" viewBox="0 0 512 512">
      <rect width="512" height="512" rx="15%" fill="#1da1f3"/>
      <path fill="#fff" d="M437 152a72 72 0 01-40 12 72 72 0 0032-40 72 72 0 01-45 17 72 72 0 00-122 65 200 200 0 01-145-74 72 72 0 0022 94 72 72 0 01-32-7 72 72 0 0056 69 72 72 0 01-32 1 72 72 0 0067 50 200 200 0 01-105 29 200 200 0 00309-179 200 200 0 0035-37"/>
    </symbol>
    <symbol id="GitHub" viewBox="0 0 512 512">
      <rect width="512" height="512" rx="15%" fill="#0B1817"/>
      <path fill="#fff" d="M335 499c14 0 12 17 12 17H165s-2-17 12-17c13 0 16-6 16-12l-1-50c-71 16-86-28-86-28-12-30-28-37-28-37-24-16 1-16 1-16 26 2 40 26 40 26 22 39 59 28 74 22 2-17 9-28 16-35-57-6-116-28-116-126 0-28 10-51 26-69-3-6-11-32 3-67 0 0 21-7 70 26 42-12 86-12 128 0 49-33 70-26 70-26 14 35 6 61 3 67 16 18 26 41 26 69 0 98-60 120-117 126 10 8 18 24 18 48l-1 70c0 6 3 12 16 12z"/>
    </symbol>
    <symbol id="LinkedIn" viewBox="0 0 512 512" fill="#fff">
      <rect width="512" height="512" rx="15%" fill="#0077b5"/>
      <circle cx="142" cy="138" r="37"/>
      <path stroke="#fff" stroke-width="66" d="M244 194v198M142 194v198"/>
      <path d="M276 282c0-20 13-40 36-40 24 0 33 18 33 45v105h66V279c0-61-32-89-76-89-34 0-51 19-59 32"/>
    </symbol>
    <symbol id="Reddit" viewBox="0 0 512 512">
      <rect width="512" height="512" rx="15%" fill="#f40"/>
      <g fill="#fff">
        <ellipse cx="256" cy="307" rx="166" ry="117"/>
        <circle cx="106" cy="256" r="42"/>
        <circle cx="407" cy="256" r="42"/>
        <circle cx="375" cy="114" r="32"/>
      </g>
      <g stroke-linecap="round" stroke-linejoin="round" fill="none">
        <path d="M256 196l23-101 73 15" stroke="#fff" stroke-width="16"/>
        <path d="M191 359c33 25 97 26 130 0" stroke="#f40" stroke-width="13"/>
      </g>
      <g fill="#f40">
        <circle cx="191" cy="287" r="31"/>
        <circle cx="321" cy="287" r="31"/>
      </g>
    </symbol>
    <symbol id="Mastadon" viewBox="0 0 512 512" fill="#fff">
      <rect width="512" height="512" rx="15%"/>
      <path d="M409 290c-5 24-43 50-85 56-86 11-137-6-137-6 3 13-4 54 70 52 31 0 58-7 58-7l2 27c-51 24-107 15-140 6-67-17-79-90-81-162v-59c0-74 49-96 49-96 50-24 180-22 222 0 0 0 49 22 49 96 0 0 1 55-7 93" fill="#3088d4"/>
      <path d="M358 202v91h-35v-88c0-18-8-27-23-27-18 0-27 11-27 33v47h-34v-47c0-22-9-33-27-33-15 0-23 9-23 27v88h-35v-91c0-18 5-60 52-60 39 0 50 37 50 37s10-37 50-37c45 0 52 42 52 60"/>
    </symbol>
    <symbol id="Email" viewBox="0 0 512 512">
      <rect width="512" height="512" rx="15%" fill="teal"/>
      <rect width="356" height="256" x="78" y="128" fill="#fff" rx="8%"/>
      <path fill="none" stroke="teal" stroke-width="20" d="M434 128L269 292c-7 8-19 8-26 0L78 128m0 256l129-128m227 128L305 256"/>
    </symbol>
    <symbol id="YouTube" viewBox="0 0 512 512" fill="#ed1d24">
      <rect width="512" height="512" rx="15%"/>
      <path d="M427 169c-4-15-17-27-32-31-34-9-239-10-278 0-15 4-28 16-32 31-9 38-10 135 0 174 4 15 17 27 32 31 36 10 241 10 278 0 15-4 28-16 32-31 9-36 9-137 0-174" fill="#fff"/>
      <path d="M220 203v106l93-53"/>
    </symbol>
  </defs>
</svg>
