<svg xmlns="http://www.w3.org/2000/svg" viewBox="0 0 512 512">
    <path d="M60.832 355.04c-81.11-81.114-81.11-213.095 0-294.208 81.113-81.11 213.09-81.11 294.203 0 68.813 68.816 79.235 171.156 31.293 251.074 0 0-3.445 5.778 1.207 10.426l106.137 106.137c21.125 21.125 26.156 50.664 7.422 69.402l-3.227 3.223c-18.734 18.738-48.277 13.71-69.398-7.418L322.555 387.762c-4.875-4.875-10.653-1.43-10.653-1.43-79.914 47.941-182.257 37.52-251.07-31.293zm255.793-38.411c59.934-59.934 59.934-157.45 0-217.383-59.933-59.933-157.453-59.933-217.383 0-59.933 59.93-59.933 157.45 0 217.383 59.934 59.934 157.45 59.934 217.383 0zm0 0"/>
    <path d="M303.348 195.59a21.39 21.39 0 008.36-1.703c10.921-4.621 16.027-17.219 11.405-28.14C294.07 97.108 214.598 64.897 145.961 93.94c-10.918 4.621-16.027 17.22-11.406 28.141 4.62 10.922 17.219 16.027 28.14 11.406 46.833-19.816 101.06 2.16 120.872 48.992 3.464 8.192 11.418 13.11 19.78 13.11zm0 0"/>
</svg>
